<svg width="317" height="100" xmlns="http://www.w3.org/2000/svg">
 <g>
  <title>Layer 1</title>
  <rect stroke="#777777" id="svg_55" height="146.49766" width="319.99491" y="-23.61117" x="-1.89294" fill="#3f4a4f"/>
  <text transform="matrix(1.15519 0 0 1.43973 -12.0681 -17.7951)" stroke="#000" font-style="normal" font-weight="normal" xml:space="preserve" text-anchor="start" font-family="'Special Elite'" font-size="24" stroke-width="0" id="svg_57" y="58.46942" x="77.77704" fill="#f5827c">MathExpert</text>
  <g id="svg_71">
   <g id="svg_72">
    <rect stroke="#777777" id="svg_56" height="61.33328" width="60.66661" y="16.30488" x="10.27144" fill="#3f4a4f"/>
    <rect stroke-width="2" id="svg_58" height="27.99997" width="9.99999" y="45.53425" x="16.01594" stroke="#f5827c" fill="#3f4a4f"/>
    <rect stroke-width="2" stroke="#f5827c" id="svg_59" height="17.99998" width="9.99999" y="55.47152" x="30.34926" fill="none"/>
    <rect stroke-width="2" stroke="#f5827c" id="svg_60" height="12.66666" width="9.99999" y="60.80485" x="45.93829" fill="none"/>
    <ellipse stroke-width="2" ry="13.33332" rx="12.66666" id="svg_61" cy="40.80486" cx="49.93828" stroke="#f5827c" fill="none"/>
    <path stroke-width="2" id="svg_62" d="m16.18628,26.91759l4.62685,0l0,-4.73702l4.74627,0l0,4.73702l4.62685,0l0,4.85928l-4.62685,0l0,4.73701l-4.74627,0l0,-4.73701l-4.62685,0l0,-4.85928z" stroke="#f5827c" fill="none"/>
    <path stroke-width="2" id="svg_63" d="m29.78792,36.28669l13.16664,0l0,5.66666l-13.16664,0l0,-5.66666z" stroke="#f5827c" fill="#3f4a4f"/>
    <path stroke-width="0.6" stroke="#f5827c" id="svg_64" d="m53.65438,34.35975l-3.24978,3.58083l16.3333,0l0,-17.99997l-13.08352,14.41914zm7.65939,-7.91266c0.11801,-0.12796 0.30455,-0.12796 0.42129,0l0.73599,0.81043c0.11675,0.12796 0.11802,0.33563 0.00127,0.4636c-0.05837,0.06363 -0.13514,0.09579 -0.21064,0.09579c-0.07678,0 -0.15228,-0.03216 -0.20938,-0.09579l-0.73853,-0.81043c-0.11611,-0.12796 -0.11611,-0.33494 0,-0.4636zm-1.0158,1.12159c0.11675,-0.12796 0.30455,-0.12796 0.42003,0l1.36793,1.50617c0.11674,0.12797 0.11674,0.33564 0.00127,0.46221c-0.05838,0.06433 -0.13515,0.09719 -0.21192,0.09719s-0.15227,-0.03216 -0.20938,-0.0958l-1.36793,-1.50617c-0.11674,-0.12796 -0.11674,-0.33564 0,-0.4636zm-1.01769,1.11949c0.11674,-0.12796 0.30454,-0.12796 0.42129,0l0.73599,0.81183c0.11674,0.12796 0.11547,0.33563 -0.00127,0.46359c-0.05837,0.06434 -0.13387,0.0965 -0.20938,0.0965c-0.07677,0 -0.15227,-0.03216 -0.21064,-0.0965l-0.73599,-0.81112c-0.11611,-0.12796 -0.11611,-0.33634 0,-0.4643zm-1.0158,1.12089c0.11674,-0.12796 0.30455,-0.12656 0.42129,0.0014l0.73472,0.81043c0.11611,0.12866 0.11611,0.33563 0,0.46359c-0.05837,0.06434 -0.1345,0.0965 -0.21064,0.0965c-0.0755,0 -0.15228,-0.03216 -0.21065,-0.0965l-0.73472,-0.81182c-0.11611,-0.12866 -0.11611,-0.33564 0,-0.4636zm-1.01706,1.12159c0.11611,-0.12866 0.30391,-0.12866 0.42065,0l1.36666,1.50548c0.11675,0.12866 0.11675,0.33633 0,0.46499c-0.05837,0.06433 -0.13387,0.0965 -0.20937,0.0965c-0.07677,0 -0.15355,-0.03217 -0.21192,-0.0965l-1.36602,-1.50687c-0.11611,-0.12866 -0.11611,-0.33564 0,-0.4636zm-1.26324,5.33035c-0.05774,0.06503 -0.13451,0.09719 -0.21065,0.09719c-0.0755,0 -0.15101,-0.03146 -0.20938,-0.09579l-1.36666,-1.50548c-0.11674,-0.12796 -0.11674,-0.33494 0,-0.4636s0.30392,-0.12866 0.42003,0l1.36666,1.50548c0.1161,0.12726 0.1161,0.33424 0,0.4622zm0.38703,-1.81594c-0.05901,0.06503 -0.13578,0.09719 -0.21128,0.09719c-0.07614,0 -0.15228,-0.03146 -0.20938,-0.09579l-0.73726,-0.81183c-0.11675,-0.12796 -0.11675,-0.33494 0,-0.4615c0.11674,-0.12936 0.30455,-0.13076 0.42129,-0.0021l0.73663,0.81253c0.1161,0.12586 0.1161,0.33354 0,0.4615zm1.01579,-1.12019c-0.05837,0.06433 -0.13387,0.09649 -0.21064,0.09649c-0.07551,0 -0.15164,-0.03216 -0.21002,-0.09649l-0.73535,-0.81113c-0.11675,-0.12866 -0.11675,-0.33564 0,-0.4643s0.30454,-0.12726 0.42065,0.0014l0.73536,0.81183c0.11611,0.12796 0.11611,0.33563 0,0.4622zm6.17789,1.11949l-5.5009,0l5.5009,-6.06246l0,6.06246zm-0.07614,-7.84344c-0.0571,0.06434 -0.13387,0.0965 -0.20938,0.0965c-0.07677,0 -0.15354,-0.03216 -0.21191,-0.0965l-0.73599,-0.81042c-0.11675,-0.12796 -0.11675,-0.33494 0,-0.4636c0.11547,-0.12796 0.30391,-0.12796 0.42002,0l0.73599,0.81043c0.11675,0.12866 0.11738,0.33563 0.00127,0.46359zm1.6471,-0.42514c-0.05837,0.06433 -0.13514,0.0958 -0.21065,0.0958s-0.15227,-0.03147 -0.20937,-0.0958l-1.36666,-1.50617c-0.11675,-0.12796 -0.11675,-0.33634 0,-0.4643s0.30581,-0.12656 0.42129,0.0014l1.36666,1.50617c0.11611,0.12797 0.11484,0.33564 -0.00127,0.4629z" fill="#3f4a4f"/>
    <rect stroke="#000" id="svg_65" height="2.33333" width="6.99999" y="68.63799" x="54.77121" stroke-width="0" fill="#3f4a4f"/>
    <rect stroke="#000" id="svg_66" height="1.66666" width="6.99999" y="53.47134" x="32.10458" stroke-width="0" fill="#3f4a4f"/>
    <rect stroke="#000" id="svg_67" height="1.16666" width="6.99999" y="34.55473" x="31.35462" stroke-width="0" fill="#3f4a4f"/>
    <rect stroke="#000" id="svg_68" height="0.83333" width="6.99999" y="35.05473" x="36.18795" stroke-width="0" fill="#3f4a4f"/>
    <rect stroke="#000" id="svg_69" height="0.83333" width="6.99999" y="42.38805" x="36.18795" stroke-width="0" fill="#3f4a4f"/>
   </g>
  </g>
 </g>

</svg>